# xmcd
#
# Track frame offsets:
#	150
#	23992
#	50305
#	58877
#	78460
#	88685
#	99207
#	115780
#	145905
#	165305
#	179680
#	196390
#	211940
#	233637
#	248760
#
# Disc length: 3901
#
# Revision: 1
# Processed by: cddbd v1.5.1PL0 Copyright (c) Steve Scherf et al.
# Submitted via: audiograbber 1.80
# Normalized: r0:DSETVAR1
#
DISCID=c30f3b0f
DTITLE=Various Artist - The Best ... Jazz - Vol. 1
DYEAR=1900
DGENRE=
TTITLE0=Nina Simone - My Baby Just Cares For Me
TTITLE1=Art Blakey - For Minors Only
TTITLE2=Nat King Cole - Yes Sir That's My Baby
TTITLE3=Dexter Gordon - Darn That Dream
TTITLE4=Duke Ellington - Koko
TTITLE5=Ray Charles - They're Crazy About Me
TTITLE6=Eydie Gorme - Round Midnight
TTITLE7=Wes Montgomery - The Girl Next Door
TTITLE8=Nina Simone - Little Girl Blue
TTITLE9=Wayne Shorter - Powderkeg
TTITLE10=Mel Torme - The First Time Ever I Saw Your Face
TTITLE11=Sarah Vaughan - Like Someone In Love
TTITLE12=Duke Ellington) - Number Four
TTITLE13=Nina Simone - Love Me Or Leave Mex
TTITLE14=John Coltrane - I Want To Talk About It
EXTD=Sound CD 906
EXTT0=
EXTT1=
EXTT2=
EXTT3=
EXTT4=
EXTT5=
EXTT6=
EXTT7=
EXTT8=
EXTT9=
EXTT10=
EXTT11=
EXTT12=
EXTT13=
EXTT14=
PLAYORDER=
